<svg xmlns="http://www.w3.org/2000/svg" width="38.084" height="29.615" viewBox="0 0 38.084 29.615">
  <g id="Icon_ionic-ios-mail" data-name="Icon ionic-ios-mail" transform="translate(-3.376 -4.336)">
    <path id="Icon_awesome-home" data-name="Icon awesome-home" d="M18.536,9.936,6.347,19.976V30.811A1.058,1.058,0,0,0,7.4,31.869l7.409-.019a1.058,1.058,0,0,0,1.053-1.058V24.464a1.058,1.058,0,0,1,1.058-1.058h4.231a1.058,1.058,0,0,1,1.058,1.058v6.323a1.058,1.058,0,0,0,1.058,1.061l7.406.02a1.058,1.058,0,0,0,1.058-1.058V19.968L19.548,9.936A.806.806,0,0,0,18.536,9.936ZM37.79,16.76,32.263,12.2V3.047a.793.793,0,0,0-.793-.793h-3.7a.793.793,0,0,0-.793.793v4.8l-5.919-4.87a3.173,3.173,0,0,0-4.033,0L.287,16.76a.793.793,0,0,0-.106,1.117l1.686,2.049a.793.793,0,0,0,1.118.108L18.536,7.226a.806.806,0,0,1,1.012,0L35.1,20.035a.793.793,0,0,0,1.117-.106L37.9,17.879a.793.793,0,0,0-.112-1.119Z" transform="translate(3.377 2.083)" fill="#fff"/>
  </g>
</svg>
