<svg xmlns="http://www.w3.org/2000/svg" width="36.802" height="25.479" viewBox="0 0 36.802 25.479">
  <g id="Icon_ionic-ios-mail" data-name="Icon ionic-ios-mail" transform="translate(-3.375 -7.875)">
    <path id="Tracé_905" data-name="Tracé 905" d="M39.877,10.368l-9.519,9.7a.171.171,0,0,0,0,.248l6.662,7.1a1.148,1.148,0,0,1,0,1.628,1.153,1.153,0,0,1-1.628,0l-6.635-7.069a.182.182,0,0,0-.257,0l-1.619,1.645A7.123,7.123,0,0,1,21.8,25.753a7.266,7.266,0,0,1-5.184-2.2l-1.557-1.584a.182.182,0,0,0-.257,0L8.17,29.035a1.153,1.153,0,0,1-1.628,0,1.148,1.148,0,0,1,0-1.628l6.662-7.1a.188.188,0,0,0,0-.248l-9.528-9.7a.174.174,0,0,0-.3.124v19.4a2.839,2.839,0,0,0,2.831,2.831h31.14a2.839,2.839,0,0,0,2.831-2.831v-19.4A.177.177,0,0,0,39.877,10.368Z" transform="translate(0 0.63)" fill="#fff"/>
    <path id="Tracé_906" data-name="Tracé 906" d="M21.556,24.073a4.81,4.81,0,0,0,3.459-1.451L38.9,8.494a2.78,2.78,0,0,0-1.752-.619H5.977a2.762,2.762,0,0,0-1.752.619l13.88,14.128A4.81,4.81,0,0,0,21.556,24.073Z" transform="translate(0.22 0)" fill="#fff"/>
  </g>
</svg>
