<svg xmlns="http://www.w3.org/2000/svg" width="30" height="30" viewBox="0 0 30 30">
  <path id="Icon_awesome-phone-alt" data-name="Icon awesome-phone-alt" d="M29.144,21.2l-6.563-2.813a1.406,1.406,0,0,0-1.641.4l-2.906,3.551A21.719,21.719,0,0,1,7.652,11.96L11.2,9.054a1.4,1.4,0,0,0,.4-1.641L8.8.85A1.416,1.416,0,0,0,7.184.036L1.09,1.442A1.406,1.406,0,0,0,0,2.813,27.185,27.185,0,0,0,27.188,30a1.406,1.406,0,0,0,1.371-1.09l1.406-6.094a1.423,1.423,0,0,0-.821-1.617Z" transform="translate(0 0)" fill="#fff"/>
</svg>
