<svg xmlns="http://www.w3.org/2000/svg" width="109.695" height="109.695" viewBox="0 0 109.695 109.695">
  <path id="noun-sale-2146087" d="M178.5,112.506l-28.73,28.768a11.679,11.679,0,0,1-16.507,0l-27.952-27.951a11.679,11.679,0,0,1,0-16.507l28.768-28.73Zm33.09-65.831V74.589a11.678,11.678,0,0,1-3.425,8.292l-24.176,24.136L139.564,62.6,163.7,38.42a11.678,11.678,0,0,1,8.292-3.425h27.914a11.677,11.677,0,0,1,11.679,11.679ZM203.8,50.568a7.785,7.785,0,1,0-2.28,5.506A7.789,7.789,0,0,0,203.8,50.568Z" transform="translate(-101.891 -34.995)" fill="#094d10"/>
</svg>
